<mxfile host="app.diagrams.net" modified="2021-10-15T09:44:36.568Z" agent="5.0 (Windows NT 10.0; Win64; x64) AppleWebKit/537.36 (KHTML, like Gecko) Chrome/94.0.4606.81 Safari/537.36" etag="zC7fHqtt_iZcso5hpTgl" version="15.4.0" type="github">
  <diagram name="Page-1" id="54c02804-9d69-ba3f-8aca-1021b27b8050">
    <mxGraphModel dx="3231" dy="1065" grid="1" gridSize="10" guides="1" tooltips="1" connect="1" arrows="1" fold="1" page="1" pageScale="1" pageWidth="1169" pageHeight="827" background="#666666" math="0" shadow="0">
      <root>
        <mxCell id="0" />
        <mxCell id="1" parent="0" />
        <mxCell id="7c3a617817c5cf35-11" value="&lt;h1 style=&quot;text-align: left&quot;&gt;&lt;font style=&quot;font-size: 18px&quot;&gt;Product Planning Meeting&lt;/font&gt;&lt;/h1&gt;" style="text;html=1;spacing=5;spacingTop=-20;whiteSpace=wrap;overflow=hidden;strokeWidth=2;fillColor=none;gradientColor=none;fontSize=14;align=center;strokeColor=none;fontColor=#FFFFFF;" parent="1" vertex="1">
          <mxGeometry x="-1020" y="240" width="160" height="90" as="geometry" />
        </mxCell>
        <mxCell id="PU6QvB0Lzl-o8I71-tE7-29" value="Business&lt;br&gt;Understanding" style="shape=step;perimeter=stepPerimeter;whiteSpace=wrap;html=1;fixedSize=1;size=10;fillColor=#10739E;strokeColor=none;fontSize=17;fontColor=#FFFFFF;fontStyle=1;align=center;rounded=0;" parent="1" vertex="1">
          <mxGeometry x="-1040" y="90" width="160" height="70" as="geometry" />
        </mxCell>
        <mxCell id="PU6QvB0Lzl-o8I71-tE7-30" value="Model&lt;br&gt;Selection" style="shape=step;perimeter=stepPerimeter;whiteSpace=wrap;html=1;fixedSize=1;size=10;fillColor=#F2931E;strokeColor=none;fontSize=17;fontColor=#FFFFFF;fontStyle=1;align=center;rounded=0;" parent="1" vertex="1">
          <mxGeometry x="-400" y="90" width="160" height="70" as="geometry" />
        </mxCell>
        <mxCell id="PU6QvB0Lzl-o8I71-tE7-31" value="Build/Train&lt;br&gt;Model" style="shape=step;perimeter=stepPerimeter;whiteSpace=wrap;html=1;fixedSize=1;size=10;fillColor=#AE4132;strokeColor=none;fontSize=17;fontColor=#FFFFFF;fontStyle=1;align=center;rounded=0;" parent="1" vertex="1">
          <mxGeometry x="-80" y="90" width="160" height="70" as="geometry" />
        </mxCell>
        <mxCell id="PU6QvB0Lzl-o8I71-tE7-32" value="Model&lt;br&gt;Deployment" style="shape=step;perimeter=stepPerimeter;whiteSpace=wrap;html=1;fixedSize=1;size=10;fillColor=#23445D;strokeColor=none;fontSize=17;fontColor=#FFFFFF;fontStyle=1;align=center;rounded=0;" parent="1" vertex="1">
          <mxGeometry x="240" y="90" width="160" height="70" as="geometry" />
        </mxCell>
        <mxCell id="PU6QvB0Lzl-o8I71-tE7-33" value="Data&lt;br&gt;Collection" style="shape=step;perimeter=stepPerimeter;whiteSpace=wrap;html=1;fixedSize=1;size=10;fillColor=#12AAB5;strokeColor=none;fontSize=17;fontColor=#FFFFFF;fontStyle=1;align=center;rounded=0;" parent="1" vertex="1">
          <mxGeometry x="-880" y="90" width="160" height="70" as="geometry" />
        </mxCell>
        <mxCell id="PU6QvB0Lzl-o8I71-tE7-49" value="Data&lt;br&gt;Exploration" style="shape=step;perimeter=stepPerimeter;whiteSpace=wrap;html=1;fixedSize=1;size=10;fillColor=#12AAB5;strokeColor=none;fontSize=17;fontColor=#FFFFFF;fontStyle=1;align=center;rounded=0;" parent="1" vertex="1">
          <mxGeometry x="-720" y="90" width="160" height="70" as="geometry" />
        </mxCell>
        <mxCell id="PU6QvB0Lzl-o8I71-tE7-50" value="Data&lt;br&gt;Preparation" style="shape=step;perimeter=stepPerimeter;whiteSpace=wrap;html=1;fixedSize=1;size=10;fillColor=#12AAB5;strokeColor=none;fontSize=17;fontColor=#FFFFFF;fontStyle=1;align=center;rounded=0;" parent="1" vertex="1">
          <mxGeometry x="-560" y="90" width="160" height="70" as="geometry" />
        </mxCell>
        <mxCell id="PU6QvB0Lzl-o8I71-tE7-51" value="Feature&lt;br&gt;Engineering" style="shape=step;perimeter=stepPerimeter;whiteSpace=wrap;html=1;fixedSize=1;size=10;fillColor=#F2931E;strokeColor=none;fontSize=17;fontColor=#FFFFFF;fontStyle=1;align=center;rounded=0;" parent="1" vertex="1">
          <mxGeometry x="-240" y="90" width="160" height="70" as="geometry" />
        </mxCell>
        <mxCell id="PU6QvB0Lzl-o8I71-tE7-52" value="Model&lt;br&gt;Evaluation" style="shape=step;perimeter=stepPerimeter;whiteSpace=wrap;html=1;fixedSize=1;size=10;fillColor=#AE4132;strokeColor=none;fontSize=17;fontColor=#FFFFFF;fontStyle=1;align=center;rounded=0;" parent="1" vertex="1">
          <mxGeometry x="80" y="90" width="160" height="70" as="geometry" />
        </mxCell>
        <mxCell id="PU6QvB0Lzl-o8I71-tE7-53" value="" style="strokeWidth=2;html=1;shape=mxgraph.flowchart.annotation_2;align=left;labelPosition=right;pointerEvents=1;rotation=90;strokeColor=#FFFFFF;" parent="1" vertex="1">
          <mxGeometry x="-740" y="-240" width="30" height="620" as="geometry" />
        </mxCell>
        <mxCell id="PU6QvB0Lzl-o8I71-tE7-54" value="" style="strokeWidth=2;html=1;shape=mxgraph.flowchart.annotation_2;align=left;labelPosition=right;pointerEvents=1;rotation=90;strokeColor=#FFFFFF;" parent="1" vertex="1">
          <mxGeometry x="-260" y="-80" width="30" height="300" as="geometry" />
        </mxCell>
        <mxCell id="PU6QvB0Lzl-o8I71-tE7-55" value="" style="strokeWidth=2;html=1;shape=mxgraph.flowchart.annotation_2;align=left;labelPosition=right;pointerEvents=1;rotation=90;strokeColor=#FFFFFF;" parent="1" vertex="1">
          <mxGeometry x="140" y="-160" width="30" height="460" as="geometry" />
        </mxCell>
        <mxCell id="PU6QvB0Lzl-o8I71-tE7-56" value="&lt;font style=&quot;font-size: 18px&quot;&gt;Prediction Engineering&lt;/font&gt;" style="text;strokeColor=none;fillColor=none;html=1;fontSize=24;fontStyle=1;verticalAlign=middle;align=center;fontColor=#FFFFFF;" parent="1" vertex="1">
          <mxGeometry x="-775" y="20" width="100" height="30" as="geometry" />
        </mxCell>
        <mxCell id="PU6QvB0Lzl-o8I71-tE7-58" value="&lt;font style=&quot;font-size: 18px&quot;&gt;Feature Engineering&lt;/font&gt;" style="text;strokeColor=none;fillColor=none;html=1;fontSize=24;fontStyle=1;verticalAlign=middle;align=center;fontColor=#FFFFFF;" parent="1" vertex="1">
          <mxGeometry x="-295" y="20" width="100" height="30" as="geometry" />
        </mxCell>
        <mxCell id="PU6QvB0Lzl-o8I71-tE7-59" value="&lt;font style=&quot;font-size: 18px&quot;&gt;Modelling&lt;/font&gt;" style="text;strokeColor=none;fillColor=none;html=1;fontSize=24;fontStyle=1;verticalAlign=middle;align=center;fontColor=#FFFFFF;" parent="1" vertex="1">
          <mxGeometry x="103" y="20" width="100" height="30" as="geometry" />
        </mxCell>
        <mxCell id="PU6QvB0Lzl-o8I71-tE7-61" value="" style="sketch=0;pointerEvents=1;shadow=0;dashed=0;html=1;strokeColor=#FFFFFF;fillColor=#FFFFFF;aspect=fixed;labelPosition=center;verticalLabelPosition=bottom;verticalAlign=top;align=center;outlineConnect=0;shape=mxgraph.vvd.user_group;" parent="1" vertex="1">
          <mxGeometry x="-1060" y="260" width="35.5" height="50" as="geometry" />
        </mxCell>
        <mxCell id="PU6QvB0Lzl-o8I71-tE7-63" value="" style="sketch=0;pointerEvents=1;shadow=0;dashed=0;html=1;strokeColor=#FFFFFF;fillColor=#FFFFFF;aspect=fixed;labelPosition=center;verticalLabelPosition=bottom;verticalAlign=top;align=center;outlineConnect=0;shape=mxgraph.vvd.networking;" parent="1" vertex="1">
          <mxGeometry x="-840" y="260" width="50" height="50" as="geometry" />
        </mxCell>
        <mxCell id="PU6QvB0Lzl-o8I71-tE7-66" value="&lt;h1&gt;&lt;font style=&quot;font-size: 18px&quot;&gt;Web Scraping &amp;amp; HTML Parsing from UNGC Website&lt;/font&gt;&lt;/h1&gt;" style="text;html=1;spacing=5;spacingTop=-20;whiteSpace=wrap;overflow=hidden;strokeWidth=2;fillColor=none;gradientColor=none;fontSize=14;align=left;strokeColor=none;fontColor=#FFFFFF;" parent="1" vertex="1">
          <mxGeometry x="-778.25" y="220" width="180" height="130" as="geometry" />
        </mxCell>
        <mxCell id="PU6QvB0Lzl-o8I71-tE7-68" value="" style="sketch=0;pointerEvents=1;shadow=0;dashed=0;html=1;strokeColor=#FFFFFF;fillColor=#FFFFFF;aspect=fixed;labelPosition=center;verticalLabelPosition=bottom;verticalAlign=top;align=center;outlineConnect=0;shape=mxgraph.vvd.log_files;" parent="1" vertex="1">
          <mxGeometry x="-586.12" y="260" width="40" height="50" as="geometry" />
        </mxCell>
        <mxCell id="PU6QvB0Lzl-o8I71-tE7-69" value="&lt;h1&gt;&lt;font style=&quot;font-size: 18px&quot;&gt;PDF Extraction &amp;amp; &lt;br&gt;Text Preprocessing&lt;/font&gt;&lt;/h1&gt;&lt;p&gt;&lt;br&gt;&lt;/p&gt;" style="text;html=1;spacing=5;spacingTop=-20;whiteSpace=wrap;overflow=hidden;strokeWidth=2;fillColor=none;gradientColor=none;fontSize=14;align=left;strokeColor=none;fontColor=#FFFFFF;" parent="1" vertex="1">
          <mxGeometry x="-533.87" y="240" width="180" height="90" as="geometry" />
        </mxCell>
        <mxCell id="PU6QvB0Lzl-o8I71-tE7-71" value="&lt;h1&gt;&lt;span style=&quot;font-size: 18px&quot;&gt;NLP Model of Named Entity Recognition&amp;nbsp;&lt;/span&gt;&lt;/h1&gt;&lt;p&gt;&lt;br&gt;&lt;/p&gt;" style="text;html=1;spacing=5;spacingTop=-20;whiteSpace=wrap;overflow=hidden;strokeWidth=2;fillColor=none;gradientColor=none;fontSize=14;align=left;strokeColor=none;fontColor=#FFFFFF;" parent="1" vertex="1">
          <mxGeometry x="-40" y="245" width="200" height="80" as="geometry" />
        </mxCell>
        <mxCell id="PU6QvB0Lzl-o8I71-tE7-72" value="&lt;h1&gt;&lt;span style=&quot;font-size: 18px&quot;&gt;NLP Metrics of &lt;br&gt;Cosine Similarity&amp;nbsp;&lt;/span&gt;&lt;/h1&gt;&lt;p&gt;&lt;br&gt;&lt;/p&gt;" style="text;html=1;spacing=5;spacingTop=-20;whiteSpace=wrap;overflow=hidden;strokeWidth=2;fillColor=none;gradientColor=none;fontSize=14;align=left;strokeColor=none;fontColor=#FFFFFF;" parent="1" vertex="1">
          <mxGeometry x="-280" y="242" width="170" height="86" as="geometry" />
        </mxCell>
        <mxCell id="PU6QvB0Lzl-o8I71-tE7-73" value="" style="sketch=0;pointerEvents=1;shadow=0;dashed=0;html=1;strokeColor=#FFFFFF;fillColor=#FFFFFF;aspect=fixed;labelPosition=center;verticalLabelPosition=bottom;verticalAlign=top;align=center;outlineConnect=0;shape=mxgraph.vvd.nsx;" parent="1" vertex="1">
          <mxGeometry x="-330" y="265.75" width="50" height="38.5" as="geometry" />
        </mxCell>
        <mxCell id="PU6QvB0Lzl-o8I71-tE7-74" value="" style="sketch=0;pointerEvents=1;shadow=0;dashed=0;html=1;strokeColor=#FFFFFF;fillColor=#FFFFFF;aspect=fixed;labelPosition=center;verticalLabelPosition=bottom;verticalAlign=top;align=center;outlineConnect=0;shape=mxgraph.vvd.nsx;" parent="1" vertex="1">
          <mxGeometry x="-90" y="265.75" width="50" height="38.5" as="geometry" />
        </mxCell>
        <mxCell id="PU6QvB0Lzl-o8I71-tE7-77" value="" style="sketch=0;pointerEvents=1;shadow=0;dashed=0;html=1;strokeColor=#FFFFFF;fillColor=#FFFFFF;aspect=fixed;labelPosition=center;verticalLabelPosition=bottom;verticalAlign=top;align=center;outlineConnect=0;shape=mxgraph.vvd.nsx_dashboard;" parent="1" vertex="1">
          <mxGeometry x="180" y="263.5" width="50" height="46.5" as="geometry" />
        </mxCell>
        <mxCell id="PU6QvB0Lzl-o8I71-tE7-78" value="&lt;h1&gt;&lt;span style=&quot;font-size: 18px&quot;&gt;Power BI&lt;br&gt;Interactive Visualization&lt;/span&gt;&lt;/h1&gt;" style="text;html=1;spacing=5;spacingTop=-20;whiteSpace=wrap;overflow=hidden;strokeWidth=2;fillColor=none;gradientColor=none;fontSize=14;align=left;strokeColor=none;fontColor=#FFFFFF;" parent="1" vertex="1">
          <mxGeometry x="240" y="242" width="216.5" height="86" as="geometry" />
        </mxCell>
      </root>
    </mxGraphModel>
  </diagram>
</mxfile>
